<?xml version="1.0" encoding="UTF-8" standalone="no"?><!DOCTYPE svg PUBLIC "-//W3C//DTD SVG 1.1//EN" "http://www.w3.org/Graphics/SVG/1.1/DTD/svg11.dtd"><!-- Generated by graphviz version 2.40.1 (20161225.0304)
 --><!-- Title: extremism_romania Pages: 1 --><svg xmlns="http://www.w3.org/2000/svg" xmlns:xlink="http://www.w3.org/1999/xlink" width="1486pt" height="1255pt" viewBox="0.00 0.00 1485.79 1255.46">
<g id="graph0" class="graph" transform="scale(1 1) rotate(0) translate(4 1251.4621)">
<title>extremism_romania</title>
<polygon fill="#ffffff" stroke="transparent" points="-4,4 -4,-1251.4621 1481.7932,-1251.4621 1481.7932,4 -4,4"/>
<g id="clust1" class="cluster">
<title>cluster_legenda</title>
<polygon fill="none" stroke="#000000" points="1167,-1086.6621 1167,-1239.4621 1467,-1239.4621 1467,-1086.6621 1167,-1086.6621"/>
<text text-anchor="middle" x="1317" y="-1222.8621" font-family="Times,serif" font-size="14.00" fill="#000000">Legendă</text>
</g>
<!-- extremism -->
<g id="node1" class="node">
<title>extremism</title>
<ellipse fill="none" stroke="#000000" cx="640" cy="-77.4528" rx="73.4081" ry="73.4081"/>
<ellipse fill="none" stroke="#000000" cx="640" cy="-77.4528" rx="77.4057" ry="77.4057"/>
<text text-anchor="middle" x="640" y="-81.6528" font-family="Times,serif" font-size="14.00" fill="#000000">Extremism în </text>
<text text-anchor="middle" x="640" y="-64.8528" font-family="Times,serif" font-size="14.00" fill="#000000">România</text>
</g>
<!-- trecut_comunist -->
<g id="node2" class="node">
<title>trecut_comunist</title>
<ellipse fill="#d3d3d3" stroke="#000000" cx="1110" cy="-1150.6621" rx="47.7207" ry="29.3315"/>
<text text-anchor="middle" x="1110" y="-1154.8621" font-family="Times,serif" font-size="14.00" fill="#000000">Trecut </text>
<text text-anchor="middle" x="1110" y="-1138.0621" font-family="Times,serif" font-size="14.00" fill="#000000">comunist</text>
</g>
<!-- coruptie -->
<g id="node4" class="node">
<title>coruptie</title>
<ellipse fill="#f08080" stroke="#000000" cx="502" cy="-1007.0621" rx="47.5537" ry="18"/>
<text text-anchor="middle" x="502" y="-1002.8621" font-family="Times,serif" font-size="14.00" fill="#000000">Corupție</text>
</g>
<!-- trecut_comunist&#45;&gt;coruptie -->
<g id="edge1" class="edge">
<title>trecut_comunist-&gt;coruptie</title>
<path fill="none" stroke="#000000" d="M1064.8413,-1141.1997C1000.3021,-1127.5638 878.0271,-1101.3114 774.4284,-1076.6621 695.9669,-1057.9937 605.3102,-1034.4324 550.8794,-1020.0693"/>
<polygon fill="#000000" stroke="#000000" points="551.7111,-1016.669 541.1487,-1017.4977 549.9225,-1023.4366 551.7111,-1016.669"/>
<text text-anchor="middle" x="806.2858" y="-1064.0621" font-family="Times,serif" font-size="14.00" fill="#000000">Guvernare </text>
<text text-anchor="middle" x="806.2858" y="-1047.2621" font-family="Times,serif" font-size="14.00" fill="#000000">ineficientă</text>
</g>
<!-- saracie -->
<g id="node5" class="node">
<title>saracie</title>
<ellipse fill="#f08080" stroke="#000000" cx="635" cy="-890.0465" rx="96.5294" ry="29.3315"/>
<text text-anchor="middle" x="635" y="-894.2465" font-family="Times,serif" font-size="14.00" fill="#000000">Sărăcie/</text>
<text text-anchor="middle" x="635" y="-877.4465" font-family="Times,serif" font-size="14.00" fill="#000000">Disperare economică</text>
</g>
<!-- trecut_comunist&#45;&gt;saracie -->
<g id="edge3" class="edge">
<title>trecut_comunist-&gt;saracie</title>
<path fill="none" stroke="#000000" d="M1074.2978,-1131.0736C992.2821,-1086.0745 789.898,-975.0335 691.0891,-920.8206"/>
<polygon fill="#000000" stroke="#000000" points="692.5955,-917.6549 682.1448,-915.9131 689.2283,-923.7919 692.5955,-917.6549"/>
<text text-anchor="middle" x="924.7213" y="-1011.2621" font-family="Times,serif" font-size="14.00" fill="#000000">Crearea rapidă </text>
<text text-anchor="middle" x="924.7213" y="-994.4621" font-family="Times,serif" font-size="14.00" fill="#000000">a inegalității</text>
</g>
<!-- educatie_precara -->
<g id="node6" class="node">
<title>educatie_precara</title>
<ellipse fill="#f08080" stroke="#000000" cx="941" cy="-761.6152" rx="51.3807" ry="29.3315"/>
<text text-anchor="middle" x="941" y="-765.8152" font-family="Times,serif" font-size="14.00" fill="#000000">Educație </text>
<text text-anchor="middle" x="941" y="-749.0152" font-family="Times,serif" font-size="14.00" fill="#000000">Precară</text>
</g>
<!-- trecut_comunist&#45;&gt;educatie_precara -->
<g id="edge2" class="edge">
<title>trecut_comunist-&gt;educatie_precara</title>
<path fill="none" stroke="#000000" d="M1109.5299,-1121.0465C1107.5837,-1066.6695 1098.2592,-948.4409 1055,-860.6308 1040.077,-830.3393 1011.3088,-805.4624 986.4067,-788.2205"/>
<polygon fill="#000000" stroke="#000000" points="988.0441,-785.1045 977.7888,-782.4439 984.1465,-790.9191 988.0441,-785.1045"/>
<text text-anchor="middle" x="1118.0505" y="-958.4621" font-family="Times,serif" font-size="14.00" fill="#000000">Control </text>
<text text-anchor="middle" x="1118.0505" y="-941.6621" font-family="Times,serif" font-size="14.00" fill="#000000">ideologic</text>
</g>
<!-- autoritarism -->
<g id="node8" class="node">
<title>autoritarism</title>
<ellipse fill="#ffffe0" stroke="#000000" cx="1223" cy="-359.5213" rx="64.2502" ry="29.3315"/>
<text text-anchor="middle" x="1223" y="-363.7213" font-family="Times,serif" font-size="14.00" fill="#000000">Autoritarism </text>
<text text-anchor="middle" x="1223" y="-346.9213" font-family="Times,serif" font-size="14.00" fill="#000000">în creștere</text>
</g>
<!-- trecut_comunist&#45;&gt;autoritarism -->
<g id="edge4" class="edge">
<title>trecut_comunist-&gt;autoritarism</title>
<path fill="none" stroke="#000000" d="M1131.1394,-1124.0541C1140.6439,-1112.3766 1152.1453,-1098.6306 1163,-1086.6621 1196.4849,-1049.7414 1242,-1056.9056 1242,-1007.0621 1242,-1007.0621 1242,-1007.0621 1242,-487.9526 1242,-457.8409 1236.8258,-424.1814 1231.8777,-398.8771"/>
<polygon fill="#000000" stroke="#000000" points="1235.2772,-398.0299 1229.8594,-388.925 1228.4168,-399.4212 1235.2772,-398.0299"/>
<text text-anchor="middle" x="1290.209" y="-765.8152" font-family="Times,serif" font-size="14.00" fill="#000000">Nostalgie pentru </text>
<text text-anchor="middle" x="1290.209" y="-749.0152" font-family="Times,serif" font-size="14.00" fill="#000000">autoritarism</text>
</g>
<!-- trecut_comunist&#45;&gt;autoritarism -->
<g id="edge5" class="edge">
<title>trecut_comunist-&gt;autoritarism</title>
<path fill="none" stroke="#000000" d="M1126.5982,-1122.8072C1135.7366,-1109.8524 1148.2275,-1095.4083 1163,-1086.6621 1183.2513,-1074.672 1192.5256,-1083.6462 1215,-1076.6621 1288.6654,-1053.7699 1374,-1084.2025 1374,-1007.0621 1374,-1007.0621 1374,-1007.0621 1374,-487.9526 1374,-437.6144 1324.7061,-402.8721 1282.4472,-382.3369"/>
<polygon fill="#000000" stroke="#000000" points="1283.8215,-379.1158 1273.2808,-378.0455 1280.8534,-385.4554 1283.8215,-379.1158"/>
<text text-anchor="middle" x="1425.8966" y="-765.8152" font-family="Times,serif" font-size="14.00" fill="#000000">Sprijin pentru </text>
<text text-anchor="middle" x="1425.8966" y="-749.0152" font-family="Times,serif" font-size="14.00" fill="#000000">regimuri puternice</text>
</g>
<!-- razboi_ucraina -->
<g id="node3" class="node">
<title>razboi_ucraina</title>
<ellipse fill="#d3d3d3" stroke="#000000" cx="472" cy="-633.1839" rx="66.0644" ry="29.3315"/>
<text text-anchor="middle" x="472" y="-637.3839" font-family="Times,serif" font-size="14.00" fill="#000000">Războiul din </text>
<text text-anchor="middle" x="472" y="-620.5839" font-family="Times,serif" font-size="14.00" fill="#000000">Ucraina</text>
</g>
<!-- social_media -->
<g id="node7" class="node">
<title>social_media</title>
<ellipse fill="#ffffe0" stroke="#000000" cx="613" cy="-487.9526" rx="42.1906" ry="29.3315"/>
<text text-anchor="middle" x="613" y="-492.1526" font-family="Times,serif" font-size="14.00" fill="#000000">Rețele </text>
<text text-anchor="middle" x="613" y="-475.3526" font-family="Times,serif" font-size="14.00" fill="#000000">Sociale</text>
</g>
<!-- razboi_ucraina&#45;&gt;social_media -->
<g id="edge24" class="edge">
<title>razboi_ucraina-&gt;social_media</title>
<path fill="none" stroke="#000000" d="M457.5704,-604.3003C449.1685,-582.9299 443.0144,-554.3536 458.7776,-535.3682 486.57,-501.8948 513.8002,-531.349 555,-517.3682 560.279,-515.5769 565.6792,-513.3823 570.9575,-511.0066"/>
<polygon fill="#000000" stroke="#000000" points="572.7421,-514.0338 580.2743,-506.5829 569.7396,-507.7104 572.7421,-514.0338"/>
<text text-anchor="middle" x="527.6112" y="-573.1682" font-family="Times,serif" font-size="14.00" fill="#000000">Amplificarea </text>
<text text-anchor="middle" x="527.6112" y="-556.3682" font-family="Times,serif" font-size="14.00" fill="#000000">narativelor/propagandei </text>
<text text-anchor="middle" x="527.6112" y="-539.5682" font-family="Times,serif" font-size="14.00" fill="#000000">de război</text>
</g>
<!-- razboi_ucraina&#45;&gt;autoritarism -->
<g id="edge27" class="edge">
<title>razboi_ucraina-&gt;autoritarism</title>
<path fill="none" stroke="#000000" d="M537.4346,-628.9128C633.5559,-621.9635 803.5931,-606.8369 822,-585.7682 836.7377,-568.8993 835.6103,-553.1592 822,-535.3682 803.4215,-511.0829 774.1773,-541.6535 755.5988,-517.3682 739.7117,-496.601 738.8151,-478.5865 755.5988,-458.537 769.7052,-441.6857 1123.8126,-394.7722 1145,-388.937 1151.5623,-387.1296 1158.3461,-384.9935 1165.0484,-382.7105"/>
<polygon fill="#000000" stroke="#000000" points="1166.5071,-385.9074 1174.7745,-379.2816 1164.1797,-379.3056 1166.5071,-385.9074"/>
<text text-anchor="middle" x="800.7006" y="-492.1526" font-family="Times,serif" font-size="14.00" fill="#000000">Narrative </text>
<text text-anchor="middle" x="800.7006" y="-475.3526" font-family="Times,serif" font-size="14.00" fill="#000000">anti-occidentale</text>
</g>
<!-- polarizare -->
<g id="node12" class="node">
<title>polarizare</title>
<ellipse fill="none" stroke="#000000" cx="265" cy="-359.5213" rx="50.3548" ry="18"/>
<text text-anchor="middle" x="265" y="-355.3213" font-family="Times,serif" font-size="14.00" fill="#000000">Polarizare</text>
</g>
<!-- razboi_ucraina&#45;&gt;polarizare -->
<g id="edge26" class="edge">
<title>razboi_ucraina-&gt;polarizare</title>
<path fill="none" stroke="#000000" d="M420.904,-614.3808C386.9781,-601.8034 348.4063,-587.2833 347,-585.7682 290.6042,-525.0102 327.6902,-482.6799 294,-406.937 290.8725,-399.9057 286.8792,-392.6537 282.8631,-386.0008"/>
<polygon fill="#000000" stroke="#000000" points="285.7316,-383.9872 277.4516,-377.3772 279.8023,-387.7079 285.7316,-383.9872"/>
<text text-anchor="middle" x="353.8356" y="-492.1526" font-family="Times,serif" font-size="14.00" fill="#000000">Intensificarea </text>
<text text-anchor="middle" x="353.8356" y="-475.3526" font-family="Times,serif" font-size="14.00" fill="#000000">diviziunilor</text>
</g>
<!-- nationalism -->
<g id="node14" class="node">
<title>nationalism</title>
<ellipse fill="none" stroke="#000000" cx="485" cy="-487.9526" rx="61.3725" ry="18"/>
<text text-anchor="middle" x="485" y="-483.7526" font-family="Times,serif" font-size="14.00" fill="#000000">Naționalism</text>
</g>
<!-- razboi_ucraina&#45;&gt;nationalism -->
<g id="edge25" class="edge">
<title>razboi_ucraina-&gt;nationalism</title>
<path fill="none" stroke="#000000" d="M420.6077,-614.4381C392.9153,-603.8214 363.6239,-591.5406 359.7966,-585.7682 347.4183,-567.0991 346.9045,-553.6863 359.7966,-535.3682 373.4389,-515.9842 387.8078,-525.6966 410,-517.3682 419.4282,-513.83 429.4857,-509.9552 439.0727,-506.213"/>
<polygon fill="#000000" stroke="#000000" points="440.4292,-509.4407 448.4621,-502.5324 437.8745,-502.9235 440.4292,-509.4407"/>
<text text-anchor="middle" x="398.1017" y="-564.7682" font-family="Times,serif" font-size="14.00" fill="#000000">Naționalism </text>
<text text-anchor="middle" x="398.1017" y="-547.9682" font-family="Times,serif" font-size="14.00" fill="#000000">exacerbat</text>
</g>
<!-- coruptie&#45;&gt;saracie -->
<g id="edge6" class="edge">
<title>coruptie-&gt;saracie</title>
<path fill="none" stroke="#000000" d="M521.0557,-990.2966C540.4348,-973.2465 571.0303,-946.3281 595.6399,-924.6762"/>
<polygon fill="#000000" stroke="#000000" points="598.202,-927.0838 603.3979,-917.8505 593.5781,-921.8283 598.202,-927.0838"/>
<text text-anchor="middle" x="615.7963" y="-958.4621" font-family="Times,serif" font-size="14.00" fill="#000000">Instabilitate </text>
<text text-anchor="middle" x="615.7963" y="-941.6621" font-family="Times,serif" font-size="14.00" fill="#000000">economică</text>
</g>
<!-- coruptie&#45;&gt;educatie_precara -->
<g id="edge7" class="edge">
<title>coruptie-&gt;educatie_precara</title>
<path fill="none" stroke="#000000" d="M545.1724,-999.3292C654.9217,-978.6865 939.6227,-918.6439 992,-842.6308 1000.4732,-830.3341 997.9649,-822.7211 992,-809.0308 989.2746,-802.7757 985.2722,-796.974 980.6882,-791.7299"/>
<polygon fill="#000000" stroke="#000000" points="983.1111,-789.2008 973.6372,-784.4578 978.0855,-794.0736 983.1111,-789.2008"/>
<text text-anchor="middle" x="1012.8994" y="-885.8465" font-family="Times,serif" font-size="14.00" fill="#000000">Subfinanțare</text>
</g>
<!-- coruptie&#45;&gt;social_media -->
<g id="edge8" class="edge">
<title>coruptie-&gt;social_media</title>
<path fill="none" stroke="#000000" d="M495.2954,-989.1951C479.4896,-944.1444 443.8745,-823.0367 480.3526,-732.1995 496.3127,-692.4559 520.5478,-696.2828 547,-662.5995 572.0145,-630.747 581.3581,-623.5296 596,-585.7682 603.1697,-567.2776 607.3287,-545.649 609.7349,-527.4384"/>
<polygon fill="#000000" stroke="#000000" points="613.2185,-527.783 610.929,-517.4386 606.2679,-526.953 613.2185,-527.783"/>
<text text-anchor="middle" x="555.8237" y="-765.8152" font-family="Times,serif" font-size="14.00" fill="#000000">Exploatarea neîncrederii/</text>
<text text-anchor="middle" x="555.8237" y="-749.0152" font-family="Times,serif" font-size="14.00" fill="#000000">propagarea dezinformării</text>
</g>
<!-- anti_sistem -->
<g id="node11" class="node">
<title>anti_sistem</title>
<ellipse fill="#add8e6" stroke="#000000" cx="78" cy="-242.5057" rx="56.1918" ry="18"/>
<text text-anchor="middle" x="78" y="-238.3057" font-family="Times,serif" font-size="14.00" fill="#000000">Anti-sistem</text>
</g>
<!-- coruptie&#45;&gt;anti_sistem -->
<g id="edge10" class="edge">
<title>coruptie-&gt;anti_sistem</title>
<path fill="none" stroke="#000000" d="M453.8661,-1006.0221C328.2196,-1002.0107 0,-982.6678 0,-890.0465 0,-890.0465 0,-890.0465 0,-359.5213 0,-322.4508 27.4387,-288.1904 49.7678,-266.4474"/>
<polygon fill="#000000" stroke="#000000" points="52.2015,-268.9633 57.0974,-259.5675 47.4108,-263.8595 52.2015,-268.9633"/>
<text text-anchor="middle" x="64.9152" y="-637.3839" font-family="Times,serif" font-size="14.00" fill="#000000">Nemulțumire față de </text>
<text text-anchor="middle" x="64.9152" y="-620.5839" font-family="Times,serif" font-size="14.00" fill="#000000">corupție</text>
</g>
<!-- coruptie&#45;&gt;polarizare -->
<g id="edge9" class="edge">
<title>coruptie-&gt;polarizare</title>
<path fill="none" stroke="#000000" d="M477.7118,-991.2662C420.5014,-952.4091 278.1688,-845.7016 225.9628,-714.1995 202.3791,-654.7944 242.179,-460.7111 258.5035,-387.6647"/>
<polygon fill="#000000" stroke="#000000" points="261.9433,-388.3213 260.7314,-377.796 255.1151,-386.7798 261.9433,-388.3213"/>
<text text-anchor="middle" x="270.5186" y="-701.5995" font-family="Times,serif" font-size="14.00" fill="#000000">Favorizarea </text>
<text text-anchor="middle" x="270.5186" y="-684.7995" font-family="Times,serif" font-size="14.00" fill="#000000">clivajului social</text>
</g>
<!-- saracie&#45;&gt;extremism -->
<g id="edge11" class="edge">
<title>saracie-&gt;extremism</title>
<path fill="none" stroke="#000000" d="M545.7762,-878.5226C448.543,-860.9492 296.1643,-817.7531 216,-714.1995 166.4749,-650.2247 229.585,-600.7989 182,-535.3682 172.2053,-521.9002 157.6256,-531.6956 149.1374,-517.3682 135.8099,-494.8726 143.7276,-484.1184 149.1374,-458.537 162.053,-397.4627 164.3611,-376.6146 206,-330.1057 304.2089,-220.4104 461.7097,-145.4945 557.5382,-107.208"/>
<polygon fill="#000000" stroke="#000000" points="558.8896,-110.4373 566.9018,-103.5051 556.3154,-103.9278 558.8896,-110.4373"/>
<text text-anchor="middle" x="190.4313" y="-492.1526" font-family="Times,serif" font-size="14.00" fill="#000000">Disperare, </text>
<text text-anchor="middle" x="190.4313" y="-475.3526" font-family="Times,serif" font-size="14.00" fill="#000000">vulnerabilitate</text>
</g>
<!-- saracie&#45;&gt;educatie_precara -->
<g id="edge12" class="edge">
<title>saracie-&gt;educatie_precara</title>
<path fill="none" stroke="#000000" d="M719.7896,-875.7738C744.989,-868.7012 771.5626,-858.1943 793,-842.6308 807.7067,-831.9537 801.9911,-820.229 816.305,-809.0308 835.8499,-793.7402 860.8773,-782.9431 883.3742,-775.5565"/>
<polygon fill="#000000" stroke="#000000" points="884.6673,-778.8195 893.1695,-772.4978 882.5808,-772.1377 884.6673,-778.8195"/>
<text text-anchor="middle" x="835.8475" y="-830.0308" font-family="Times,serif" font-size="14.00" fill="#000000">Acces </text>
<text text-anchor="middle" x="835.8475" y="-813.2308" font-family="Times,serif" font-size="14.00" fill="#000000">limitat</text>
</g>
<!-- saracie&#45;&gt;educatie_precara -->
<g id="edge16" class="edge">
<title>saracie-&gt;educatie_precara</title>
<path fill="none" stroke="#000000" d="M722.9784,-877.8403C774.1052,-869.4416 832.5591,-857.1927 854,-842.6308 868.875,-832.5283 864.1004,-822.0183 876.5364,-809.0308 883.0281,-802.2512 890.5833,-795.7475 898.1885,-789.8463"/>
<polygon fill="#000000" stroke="#000000" points="900.5012,-792.4872 906.4125,-783.6948 896.3084,-786.8818 900.5012,-792.4872"/>
<text text-anchor="middle" x="934.7318" y="-830.0308" font-family="Times,serif" font-size="14.00" fill="#000000">Acces </text>
<text text-anchor="middle" x="934.7318" y="-813.2308" font-family="Times,serif" font-size="14.00" fill="#000000">limitativ la educație</text>
</g>
<!-- saracie&#45;&gt;social_media -->
<g id="edge13" class="edge">
<title>saracie-&gt;social_media</title>
<path fill="none" stroke="#000000" d="M635.1058,-860.5283C635.0446,-799.5894 633.4546,-655.5075 621,-535.3682 620.7231,-532.6968 620.3894,-529.9479 620.0176,-527.1833"/>
<polygon fill="#000000" stroke="#000000" points="623.4681,-526.5908 618.5377,-517.213 616.5439,-527.6186 623.4681,-526.5908"/>
<text text-anchor="middle" x="721.0516" y="-693.1995" font-family="Times,serif" font-size="14.00" fill="#000000">Căutarea evadării/comunității</text>
</g>
<!-- saracie&#45;&gt;anti_sistem -->
<g id="edge15" class="edge">
<title>saracie-&gt;anti_sistem</title>
<path fill="none" stroke="#000000" d="M544.5429,-879.7215C493.0984,-873.9302 427.4627,-866.6768 369,-860.6308 327.4738,-856.3364 212.9914,-870.6022 182,-842.6308 101.6156,-770.0798 210.4739,-680.4302 134,-603.7682 105.6685,-575.3671 70.9326,-616.8345 45.5518,-585.7682 31.3797,-568.4215 44.3165,-557.7342 45.5518,-535.3682 50.9376,-437.8512 66.3375,-322.8998 73.8193,-270.7565"/>
<polygon fill="#000000" stroke="#000000" points="77.319,-271.0104 75.2892,-260.6118 70.3913,-270.0066 77.319,-271.0104"/>
<text text-anchor="middle" x="114.2241" y="-564.7682" font-family="Times,serif" font-size="14.00" fill="#000000">Nemulțumire față de </text>
<text text-anchor="middle" x="114.2241" y="-547.9682" font-family="Times,serif" font-size="14.00" fill="#000000">inegalitățile economice</text>
</g>
<!-- saracie&#45;&gt;polarizare -->
<g id="edge14" class="edge">
<title>saracie-&gt;polarizare</title>
<path fill="none" stroke="#000000" d="M586.5238,-864.3762C551.4888,-845.29 503.4156,-817.9907 463,-791.0308 395.9051,-746.274 385.5859,-726.1102 319,-680.5995 306.2578,-671.8904 297.4083,-675.7336 289.3022,-662.5995 261.2677,-617.176 262.3608,-454.3687 264.0561,-387.9943"/>
<polygon fill="#000000" stroke="#000000" points="267.559,-387.9365 264.34,-377.8425 260.5618,-387.7408 267.559,-387.9365"/>
<text text-anchor="middle" x="343.8489" y="-637.3839" font-family="Times,serif" font-size="14.00" fill="#000000">Adâncirea </text>
<text text-anchor="middle" x="343.8489" y="-620.5839" font-family="Times,serif" font-size="14.00" fill="#000000">diviziunilor sociale</text>
</g>
<!-- educatie_precara&#45;&gt;saracie -->
<g id="edge19" class="edge">
<title>educatie_precara-&gt;saracie</title>
<path fill="none" stroke="#000000" d="M889.691,-764.4248C819.5896,-769.2509 698.7552,-781.4036 665.3674,-809.0308 658.3858,-814.8078 651.2396,-833.1358 645.6347,-850.9005"/>
<polygon fill="#000000" stroke="#000000" points="642.2374,-850.0435 642.6903,-860.6286 648.9372,-852.0714 642.2374,-850.0435"/>
<text text-anchor="middle" x="727.8163" y="-830.0308" font-family="Times,serif" font-size="14.00" fill="#000000">Reducerea </text>
<text text-anchor="middle" x="727.8163" y="-813.2308" font-family="Times,serif" font-size="14.00" fill="#000000">opțiunilor economice</text>
</g>
<!-- educatie_precara&#45;&gt;autoritarism -->
<g id="edge18" class="edge">
<title>educatie_precara-&gt;autoritarism</title>
<path fill="none" stroke="#000000" d="M987.9851,-749.5826C1010.3771,-742.1206 1036.4676,-730.7338 1056,-714.1995 1127.464,-653.7049 1105.0575,-605.2627 1167.359,-535.3682 1175.9128,-525.7719 1183.2523,-528.3102 1190,-517.3682 1212.1446,-481.4591 1219.6532,-433.1318 1222.0835,-399.4483"/>
<polygon fill="#000000" stroke="#000000" points="1225.6014,-399.2525 1222.7062,-389.0609 1218.6139,-398.8335 1225.6014,-399.2525"/>
<text text-anchor="middle" x="1197.3205" y="-564.7682" font-family="Times,serif" font-size="14.00" fill="#000000">Nevoia de </text>
<text text-anchor="middle" x="1197.3205" y="-547.9682" font-family="Times,serif" font-size="14.00" fill="#000000">ordine</text>
</g>
<!-- manipulare -->
<g id="node10" class="node">
<title>manipulare</title>
<ellipse fill="none" stroke="#000000" cx="941" cy="-633.1839" rx="70.8783" ry="29.3315"/>
<text text-anchor="middle" x="941" y="-637.3839" font-family="Times,serif" font-size="14.00" fill="#000000">Manipulare și </text>
<text text-anchor="middle" x="941" y="-620.5839" font-family="Times,serif" font-size="14.00" fill="#000000">Vulnerabilitate</text>
</g>
<!-- educatie_precara&#45;&gt;manipulare -->
<g id="edge17" class="edge">
<title>educatie_precara-&gt;manipulare</title>
<path fill="none" stroke="#000000" d="M941,-732.1504C941,-714.6544 941,-692.2333 941,-673.1573"/>
<polygon fill="#000000" stroke="#000000" points="944.5001,-672.9562 941,-662.9563 937.5001,-672.9563 944.5001,-672.9562"/>
<text text-anchor="middle" x="996.5842" y="-693.1995" font-family="Times,serif" font-size="14.00" fill="#000000">Crește manipularea</text>
</g>
<!-- propaganda -->
<g id="node9" class="node">
<title>propaganda</title>
<ellipse fill="none" stroke="#000000" cx="805" cy="-359.5213" rx="72.7832" ry="29.3315"/>
<text text-anchor="middle" x="805" y="-363.7213" font-family="Times,serif" font-size="14.00" fill="#000000">Propagandă și </text>
<text text-anchor="middle" x="805" y="-346.9213" font-family="Times,serif" font-size="14.00" fill="#000000">Dezinformare</text>
</g>
<!-- social_media&#45;&gt;propaganda -->
<g id="edge20" class="edge">
<title>social_media-&gt;propaganda</title>
<path fill="none" stroke="#000000" d="M650.0988,-473.9385C667.9983,-465.9682 689.0024,-454.7251 705,-440.537 718.4966,-428.567 714.7321,-419.4029 727.772,-406.937 734.7776,-400.2397 742.8834,-394.0201 751.1543,-388.436"/>
<polygon fill="#000000" stroke="#000000" points="753.2943,-391.2204 759.794,-382.8535 749.4953,-385.3409 753.2943,-391.2204"/>
<text text-anchor="middle" x="768.614" y="-427.937" font-family="Times,serif" font-size="14.00" fill="#000000">Dezinformare </text>
<text text-anchor="middle" x="768.614" y="-411.137" font-family="Times,serif" font-size="14.00" fill="#000000">coordonată</text>
</g>
<!-- social_media&#45;&gt;polarizare -->
<g id="edge21" class="edge">
<title>social_media-&gt;polarizare</title>
<path fill="none" stroke="#000000" d="M579.7144,-469.851C571.7389,-465.8563 563.165,-461.8366 555,-458.537 457.5565,-419.1578 427.1842,-426.4312 329,-388.937 320.7891,-385.8014 312.1438,-382.1078 303.9554,-378.4166"/>
<polygon fill="#000000" stroke="#000000" points="305.1539,-375.1155 294.6061,-374.1183 302.2299,-381.4755 305.1539,-375.1155"/>
<text text-anchor="middle" x="545.0137" y="-427.937" font-family="Times,serif" font-size="14.00" fill="#000000">Crearea de </text>
<text text-anchor="middle" x="545.0137" y="-411.137" font-family="Times,serif" font-size="14.00" fill="#000000">grupuri izolate</text>
</g>
<!-- homofobie -->
<g id="node13" class="node">
<title>homofobie</title>
<ellipse fill="#add8e6" stroke="#000000" cx="539" cy="-242.5057" rx="55.0381" ry="18"/>
<text text-anchor="middle" x="539" y="-238.3057" font-family="Times,serif" font-size="14.00" fill="#000000">Homofobie</text>
</g>
<!-- social_media&#45;&gt;homofobie -->
<g id="edge22" class="edge">
<title>social_media-&gt;homofobie</title>
<path fill="none" stroke="#000000" d="M612.347,-458.3345C610.8452,-425.9869 606.054,-373.0593 591,-330.1057 583.3005,-308.1367 569.7718,-285.6008 558.4436,-268.8888"/>
<polygon fill="#000000" stroke="#000000" points="561.0126,-266.4529 552.4276,-260.2441 555.2669,-270.4514 561.0126,-266.4529"/>
<text text-anchor="middle" x="656.7906" y="-363.7213" font-family="Times,serif" font-size="14.00" fill="#000000">Propagarea </text>
<text text-anchor="middle" x="656.7906" y="-346.9213" font-family="Times,serif" font-size="14.00" fill="#000000">ura anti-LGBTQ+</text>
</g>
<!-- autoritarism&#45;&gt;extremism -->
<g id="edge33" class="edge">
<title>autoritarism-&gt;extremism</title>
<path fill="none" stroke="#000000" d="M1200.8587,-331.788C1166.5474,-290.7209 1096.4695,-214.1599 1020,-172.9057 927.1391,-122.8086 807.2977,-98.3766 727.2649,-86.9004"/>
<polygon fill="#000000" stroke="#000000" points="727.6075,-83.4144 717.2196,-85.498 726.6395,-90.3472 727.6075,-83.4144"/>
<text text-anchor="middle" x="1171.6834" y="-246.7057" font-family="Times,serif" font-size="14.00" fill="#000000">Consolidarea </text>
<text text-anchor="middle" x="1171.6834" y="-229.9057" font-family="Times,serif" font-size="14.00" fill="#000000">poporului</text>
</g>
<!-- propaganda&#45;&gt;extremism -->
<g id="edge23" class="edge">
<title>propaganda-&gt;extremism</title>
<path fill="none" stroke="#000000" d="M789.6702,-330.7624C769.8344,-293.8477 733.9093,-227.9894 701,-172.9057 696.7589,-165.8069 692.2654,-158.465 687.7168,-151.1514"/>
<polygon fill="#000000" stroke="#000000" points="690.6347,-149.2163 682.3637,-142.5951 684.7004,-152.929 690.6347,-149.2163"/>
<text text-anchor="middle" x="788.7283" y="-246.7057" font-family="Times,serif" font-size="14.00" fill="#000000">Radicalizare </text>
<text text-anchor="middle" x="788.7283" y="-229.9057" font-family="Times,serif" font-size="14.00" fill="#000000">ideologică</text>
</g>
<!-- manipulare&#45;&gt;extremism -->
<g id="edge38" class="edge">
<title>manipulare-&gt;extremism</title>
<path fill="none" stroke="#000000" d="M965.2569,-605.3822C992.022,-571.1953 1029.0732,-511.2176 1011,-458.537 959.0619,-307.1456 807.3665,-186.0541 714.818,-123.6385"/>
<polygon fill="#000000" stroke="#000000" points="716.5872,-120.6112 706.3281,-117.9653 712.698,-126.4314 716.5872,-120.6112"/>
<text text-anchor="middle" x="1045.2525" y="-363.7213" font-family="Times,serif" font-size="14.00" fill="#000000">Căutarea răspunsurilor </text>
<text text-anchor="middle" x="1045.2525" y="-346.9213" font-family="Times,serif" font-size="14.00" fill="#000000">radicale</text>
</g>
<!-- manipulare&#45;&gt;social_media -->
<g id="edge36" class="edge">
<title>manipulare-&gt;social_media</title>
<path fill="none" stroke="#000000" d="M872.6464,-625.2912C810.3884,-617.1686 723.7946,-603.2502 694.218,-585.7682 680.4753,-577.6452 656.3329,-547.4729 637.9307,-522.7618"/>
<polygon fill="#000000" stroke="#000000" points="640.6859,-520.6009 631.9333,-514.6307 635.0525,-524.756 640.6859,-520.6009"/>
<text text-anchor="middle" x="771.391" y="-564.7682" font-family="Times,serif" font-size="14.00" fill="#000000">Amplifică vulnerabilitatea </text>
<text text-anchor="middle" x="771.391" y="-547.9682" font-family="Times,serif" font-size="14.00" fill="#000000">la manipulare online</text>
</g>
<!-- manipulare&#45;&gt;autoritarism -->
<g id="edge39" class="edge">
<title>manipulare-&gt;autoritarism</title>
<path fill="none" stroke="#000000" d="M997.0876,-615.0653C1012.3094,-607.9262 1027.6896,-598.3472 1039,-585.7682 1079.1689,-541.094 1048.438,-506.4704 1084.6556,-458.537 1107.4079,-428.4247 1141.9147,-403.7038 1170.7731,-386.4946"/>
<polygon fill="#000000" stroke="#000000" points="1172.6473,-389.4534 1179.5285,-381.3973 1169.1254,-383.4039 1172.6473,-389.4534"/>
<text text-anchor="middle" x="1137.6722" y="-492.1526" font-family="Times,serif" font-size="14.00" fill="#000000">Sprijin pentru </text>
<text text-anchor="middle" x="1137.6722" y="-475.3526" font-family="Times,serif" font-size="14.00" fill="#000000">regimuri autoritare</text>
</g>
<!-- manipulare&#45;&gt;propaganda -->
<g id="edge37" class="edge">
<title>manipulare-&gt;propaganda</title>
<path fill="none" stroke="#000000" d="M923.7485,-604.5719C910.0199,-581.386 890.6383,-547.701 875.326,-517.3682 855.1711,-477.4425 834.6414,-430.4888 821.0083,-398.2319"/>
<polygon fill="#000000" stroke="#000000" points="824.1098,-396.5781 817.0068,-388.717 817.6572,-399.2918 824.1098,-396.5781"/>
<text text-anchor="middle" x="943.837" y="-492.1526" font-family="Times,serif" font-size="14.00" fill="#000000">Crește susceptibilitatea </text>
<text text-anchor="middle" x="943.837" y="-475.3526" font-family="Times,serif" font-size="14.00" fill="#000000">la dezinformare</text>
</g>
<!-- anti_sistem&#45;&gt;extremism -->
<g id="edge35" class="edge">
<title>anti_sistem-&gt;extremism</title>
<path fill="none" stroke="#000000" d="M84.634,-224.3486C91.5054,-208.2132 103.843,-185.3162 122.2412,-172.9057 191.1769,-126.4048 423.6642,-97.7862 552.3978,-85.1203"/>
<polygon fill="#000000" stroke="#000000" points="553.0086,-88.5775 562.623,-84.1263 552.3313,-81.6103 553.0086,-88.5775"/>
<text text-anchor="middle" x="147.8794" y="-185.5057" font-family="Times,serif" font-size="14.00" fill="#000000">Saturatie</text>
</g>
<!-- polarizare&#45;&gt;anti_sistem -->
<g id="edge28" class="edge">
<title>polarizare-&gt;anti_sistem</title>
<path fill="none" stroke="#000000" d="M239.7803,-343.7401C206.9703,-323.2091 149.4957,-287.2443 112.6214,-264.1701"/>
<polygon fill="#000000" stroke="#000000" points="114.0517,-260.9364 103.718,-258.5988 110.3385,-266.8704 114.0517,-260.9364"/>
<text text-anchor="middle" x="235.2539" y="-291.1057" font-family="Times,serif" font-size="14.00" fill="#000000">Divizare socială</text>
</g>
<!-- polarizare&#45;&gt;homofobie -->
<g id="edge29" class="edge">
<title>polarizare-&gt;homofobie</title>
<path fill="none" stroke="#000000" d="M286.55,-342.8821C311.1605,-324.6306 353.2438,-295.658 393.5308,-278.5057 420.8062,-266.8931 452.6199,-258.486 479.5285,-252.7314"/>
<polygon fill="#000000" stroke="#000000" points="480.4965,-256.1055 489.5816,-250.6547 479.0803,-249.2502 480.4965,-256.1055"/>
<text text-anchor="middle" x="434.2346" y="-299.5057" font-family="Times,serif" font-size="14.00" fill="#000000">Stigmatizarea </text>
<text text-anchor="middle" x="434.2346" y="-282.7057" font-family="Times,serif" font-size="14.00" fill="#000000">grupurilor</text>
</g>
<!-- homofobie&#45;&gt;extremism -->
<g id="edge34" class="edge">
<title>homofobie-&gt;extremism</title>
<path fill="none" stroke="#000000" d="M549.8088,-224.8421C560.508,-207.3576 577.6285,-179.3794 594.0926,-152.4741"/>
<polygon fill="#000000" stroke="#000000" points="597.1718,-154.1476 599.406,-143.791 591.201,-150.4939 597.1718,-154.1476"/>
<text text-anchor="middle" x="638.9054" y="-193.9057" font-family="Times,serif" font-size="14.00" fill="#000000">Excluderea și </text>
<text text-anchor="middle" x="638.9054" y="-177.1057" font-family="Times,serif" font-size="14.00" fill="#000000">radicalizarea socială</text>
</g>
<!-- nationalism&#45;&gt;autoritarism -->
<g id="edge31" class="edge">
<title>nationalism-&gt;autoritarism</title>
<path fill="none" stroke="#000000" d="M521.0655,-473.1183C541.6019,-464.3136 567.6182,-452.5503 590,-440.537 614.7288,-427.2638 616.642,-415.1898 643.467,-406.937 750.0599,-374.1429 1035.661,-410.9023 1145,-388.937 1152.1212,-387.5064 1159.448,-385.5062 1166.6262,-383.2146"/>
<polygon fill="#000000" stroke="#000000" points="1167.9445,-386.4634 1176.2893,-379.9354 1165.6949,-379.8347 1167.9445,-386.4634"/>
<text text-anchor="middle" x="672.7665" y="-427.937" font-family="Times,serif" font-size="14.00" fill="#000000">Tendințe </text>
<text text-anchor="middle" x="672.7665" y="-411.137" font-family="Times,serif" font-size="14.00" fill="#000000">autoritare</text>
</g>
<!-- nationalism&#45;&gt;anti_sistem -->
<g id="edge30" class="edge">
<title>nationalism-&gt;anti_sistem</title>
<path fill="none" stroke="#000000" d="M469.3702,-470.2698C426.5586,-422.0151 309.054,-290.8372 286,-278.5057 261.6119,-265.4606 193.6757,-255.2836 142.0212,-249.1276"/>
<polygon fill="#000000" stroke="#000000" points="142.2633,-245.6322 131.9251,-247.9503 141.4524,-252.5851 142.2633,-245.6322"/>
<text text-anchor="middle" x="447.7416" y="-363.7213" font-family="Times,serif" font-size="14.00" fill="#000000">Respingerea </text>
<text text-anchor="middle" x="447.7416" y="-346.9213" font-family="Times,serif" font-size="14.00" fill="#000000">regimului existent</text>
</g>
<!-- nationalism&#45;&gt;homofobie -->
<g id="edge32" class="edge">
<title>nationalism-&gt;homofobie</title>
<path fill="none" stroke="#000000" d="M487.1399,-469.8408C489.2154,-453.3608 492.6806,-428.4035 497,-406.937 506.7547,-358.4581 521.7715,-302.8692 530.9577,-270.3304"/>
<polygon fill="#000000" stroke="#000000" points="534.352,-271.1901 533.7214,-260.614 527.619,-269.275 534.352,-271.1901"/>
<text text-anchor="middle" x="551.3454" y="-363.7213" font-family="Times,serif" font-size="14.00" fill="#000000">Respingerea </text>
<text text-anchor="middle" x="551.3454" y="-346.9213" font-family="Times,serif" font-size="14.00" fill="#000000">minoritatilor</text>
</g>
<!-- cheie -->
<g id="node15" class="node">
<title>cheie</title>
<polygon fill="#d3d3d3" stroke="transparent" points="1184,-1176.6621 1184,-1202.6621 1242,-1202.6621 1242,-1176.6621 1184,-1176.6621"/>
<polygon fill="none" stroke="#000000" points="1184,-1176.6621 1184,-1202.6621 1242,-1202.6621 1242,-1176.6621 1184,-1176.6621"/>
<text text-anchor="start" x="1203.6711" y="-1185.0621" font-family="Times,serif" font-size="14.00" fill="#000000">Gri</text>
<polygon fill="none" stroke="#000000" points="1242,-1176.6621 1242,-1202.6621 1451,-1202.6621 1451,-1176.6621 1242,-1176.6621"/>
<text text-anchor="start" x="1287.9898" y="-1185.0621" font-family="Times,serif" font-size="14.00" fill="#000000">Factor nemodificabil</text>
<polygon fill="#f08080" stroke="transparent" points="1184,-1150.6621 1184,-1176.6621 1242,-1176.6621 1242,-1150.6621 1184,-1150.6621"/>
<polygon fill="none" stroke="#000000" points="1184,-1150.6621 1184,-1176.6621 1242,-1176.6621 1242,-1150.6621 1184,-1150.6621"/>
<text text-anchor="start" x="1198.6094" y="-1159.0621" font-family="Times,serif" font-size="14.00" fill="#000000">Rosu</text>
<polygon fill="none" stroke="#000000" points="1242,-1150.6621 1242,-1176.6621 1451,-1176.6621 1451,-1150.6621 1242,-1150.6621"/>
<text text-anchor="start" x="1249.123" y="-1159.0621" font-family="Times,serif" font-size="14.00" fill="#000000">Influență mare asupra contextului</text>
<polygon fill="#ffffe0" stroke="transparent" points="1184,-1124.6621 1184,-1150.6621 1242,-1150.6621 1242,-1124.6621 1184,-1124.6621"/>
<polygon fill="none" stroke="#000000" points="1184,-1124.6621 1184,-1150.6621 1242,-1150.6621 1242,-1124.6621 1184,-1124.6621"/>
<text text-anchor="start" x="1192.7868" y="-1133.0621" font-family="Times,serif" font-size="14.00" fill="#000000">Galben</text>
<polygon fill="none" stroke="#000000" points="1242,-1124.6621 1242,-1150.6621 1451,-1150.6621 1451,-1124.6621 1242,-1124.6621"/>
<text text-anchor="start" x="1266.6034" y="-1133.0621" font-family="Times,serif" font-size="14.00" fill="#000000">Factorii cei mai influentabili</text>
<polygon fill="#add8e6" stroke="transparent" points="1184,-1098.6621 1184,-1124.6621 1242,-1124.6621 1242,-1098.6621 1184,-1098.6621"/>
<polygon fill="none" stroke="#000000" points="1184,-1098.6621 1184,-1124.6621 1242,-1124.6621 1242,-1098.6621 1184,-1098.6621"/>
<text text-anchor="start" x="1188.8962" y="-1107.0621" font-family="Times,serif" font-size="14.00" fill="#000000">Albastru</text>
<polygon fill="none" stroke="#000000" points="1242,-1098.6621 1242,-1124.6621 1451,-1124.6621 1451,-1098.6621 1242,-1098.6621"/>
<text text-anchor="start" x="1246.7941" y="-1107.0621" font-family="Times,serif" font-size="14.00" fill="#000000">Cele mai influente cauze, anecdotic</text>
</g>
</g>
</svg>
