<?xml version="1.0" encoding="UTF-8" standalone="no"?><!DOCTYPE svg PUBLIC "-//W3C//DTD SVG 1.1//EN" "http://www.w3.org/Graphics/SVG/1.1/DTD/svg11.dtd"><!-- Generated by graphviz version 2.40.1 (20161225.0304)
 --><!-- Title: extremism_romania Pages: 1 --><svg xmlns="http://www.w3.org/2000/svg" xmlns:xlink="http://www.w3.org/1999/xlink" width="1291pt" height="1252pt" viewBox="0.00 0.00 1291.42 1252.29">
<g id="graph0" class="graph" transform="scale(1 1) rotate(0) translate(4 1248.2934)">
<title>extremism_romania</title>
<polygon fill="#ffffff" stroke="transparent" points="-4,4 -4,-1248.2934 1287.418,-1248.2934 1287.418,4 -4,4"/>
<g id="clust1" class="cluster">
<title>cluster_legenda</title>
<polygon fill="none" stroke="#000000" points="895,-1109.4934 895,-1236.2934 1181,-1236.2934 1181,-1109.4934 895,-1109.4934"/>
<text text-anchor="middle" x="1038" y="-1219.6934" font-family="Times,serif" font-size="14.00" fill="#000000">Legendă</text>
</g>
<!-- extremism -->
<g id="node1" class="node">
<title>extremism</title>
<ellipse fill="none" stroke="#000000" cx="702" cy="-77.4528" rx="73.4081" ry="73.4081"/>
<ellipse fill="none" stroke="#000000" cx="702" cy="-77.4528" rx="77.4057" ry="77.4057"/>
<text text-anchor="middle" x="702" y="-81.6528" font-family="Times,serif" font-size="14.00" fill="#000000">Extremism în </text>
<text text-anchor="middle" x="702" y="-64.8528" font-family="Times,serif" font-size="14.00" fill="#000000">România</text>
</g>
<!-- trecut_comunist -->
<g id="node2" class="node">
<title>trecut_comunist</title>
<ellipse fill="#d3d3d3" stroke="#000000" cx="837" cy="-1160.4934" rx="47.7207" ry="29.3315"/>
<text text-anchor="middle" x="837" y="-1164.6934" font-family="Times,serif" font-size="14.00" fill="#000000">Trecut </text>
<text text-anchor="middle" x="837" y="-1147.8934" font-family="Times,serif" font-size="14.00" fill="#000000">comunist</text>
</g>
<!-- coruptie -->
<g id="node4" class="node">
<title>coruptie</title>
<ellipse fill="#f08080" stroke="#000000" cx="600" cy="-1029.8934" rx="47.5537" ry="18"/>
<text text-anchor="middle" x="600" y="-1025.6934" font-family="Times,serif" font-size="14.00" fill="#000000">Corupție</text>
</g>
<!-- trecut_comunist&#45;&gt;coruptie -->
<g id="edge1" class="edge">
<title>trecut_comunist-&gt;coruptie</title>
<path fill="none" stroke="#000000" d="M790.5535,-1152.8197C734.3873,-1142.6458 644.3817,-1123.1859 620.4284,-1099.4934 609.5124,-1088.6962 604.3605,-1072.3968 601.9582,-1058.2851"/>
<polygon fill="#000000" stroke="#000000" points="605.3856,-1057.5037 600.6073,-1048.0476 598.4457,-1058.4196 605.3856,-1057.5037"/>
<text text-anchor="middle" x="652.2858" y="-1086.8934" font-family="Times,serif" font-size="14.00" fill="#000000">Guvernare </text>
<text text-anchor="middle" x="652.2858" y="-1070.0934" font-family="Times,serif" font-size="14.00" fill="#000000">ineficientă</text>
</g>
<!-- saracie -->
<g id="node5" class="node">
<title>saracie</title>
<ellipse fill="#f08080" stroke="#000000" cx="600" cy="-912.8777" rx="96.5294" ry="29.3315"/>
<text text-anchor="middle" x="600" y="-917.0777" font-family="Times,serif" font-size="14.00" fill="#000000">Sărăcie/</text>
<text text-anchor="middle" x="600" y="-900.2777" font-family="Times,serif" font-size="14.00" fill="#000000">Disperare economică</text>
</g>
<!-- trecut_comunist&#45;&gt;saracie -->
<g id="edge3" class="edge">
<title>trecut_comunist-&gt;saracie</title>
<path fill="none" stroke="#000000" d="M812.3003,-1134.885C791.1647,-1112.5554 760.3209,-1078.9629 735.5574,-1047.8934 705.8988,-1010.6822 708.3581,-993.215 674,-960.2934 668.2677,-954.8007 661.8086,-949.5821 655.155,-944.753"/>
<polygon fill="#000000" stroke="#000000" points="656.8727,-941.6846 646.6632,-938.8531 652.8786,-947.4333 656.8727,-941.6846"/>
<text text-anchor="middle" x="779.7213" y="-1034.0934" font-family="Times,serif" font-size="14.00" fill="#000000">Crearea rapidă </text>
<text text-anchor="middle" x="779.7213" y="-1017.2934" font-family="Times,serif" font-size="14.00" fill="#000000">a inegalității</text>
</g>
<!-- educatie_precara -->
<g id="node6" class="node">
<title>educatie_precara</title>
<ellipse fill="none" stroke="#000000" cx="739" cy="-784.4465" rx="51.3807" ry="29.3315"/>
<text text-anchor="middle" x="739" y="-788.6465" font-family="Times,serif" font-size="14.00" fill="#000000">Educație </text>
<text text-anchor="middle" x="739" y="-771.8465" font-family="Times,serif" font-size="14.00" fill="#000000">Precară</text>
</g>
<!-- trecut_comunist&#45;&gt;educatie_precara -->
<g id="edge2" class="edge">
<title>trecut_comunist-&gt;educatie_precara</title>
<path fill="none" stroke="#000000" d="M839.0572,-1131.0537C841.6238,-1079.1774 842.3003,-968.8913 810,-883.4621 800.9826,-859.6124 784.7159,-836.27 770.0259,-818.2447"/>
<polygon fill="#000000" stroke="#000000" points="772.5225,-815.7745 763.4191,-810.3543 767.1555,-820.2684 772.5225,-815.7745"/>
<text text-anchor="middle" x="861.0505" y="-981.2934" font-family="Times,serif" font-size="14.00" fill="#000000">Control </text>
<text text-anchor="middle" x="861.0505" y="-964.4934" font-family="Times,serif" font-size="14.00" fill="#000000">ideologic</text>
</g>
<!-- autoritarism -->
<g id="node8" class="node">
<title>autoritarism</title>
<ellipse fill="#ffffe0" stroke="#000000" cx="984" cy="-527.5839" rx="64.2502" ry="29.3315"/>
<text text-anchor="middle" x="984" y="-531.7839" font-family="Times,serif" font-size="14.00" fill="#000000">Autoritarism </text>
<text text-anchor="middle" x="984" y="-514.9839" font-family="Times,serif" font-size="14.00" fill="#000000">în creștere</text>
</g>
<!-- trecut_comunist&#45;&gt;autoritarism -->
<g id="edge4" class="edge">
<title>trecut_comunist-&gt;autoritarism</title>
<path fill="none" stroke="#000000" d="M857.9567,-1134.0403C867.0239,-1124.5592 878.4407,-1114.8882 891,-1109.4934 928.4212,-1093.4194 1035.1319,-1111.6582 1074,-1099.4934 1130.2916,-1081.8753 1187,-1088.8776 1187,-1029.8934 1187,-1029.8934 1187,-1029.8934 1187,-656.0152 1187,-591.2622 1112.3246,-557.8118 1053.5571,-541.513"/>
<polygon fill="#000000" stroke="#000000" points="1054.0983,-538.0355 1043.5351,-538.8537 1052.3029,-544.8014 1054.0983,-538.0355"/>
<text text-anchor="middle" x="1235.209" y="-852.8621" font-family="Times,serif" font-size="14.00" fill="#000000">Nostalgie pentru </text>
<text text-anchor="middle" x="1235.209" y="-836.0621" font-family="Times,serif" font-size="14.00" fill="#000000">autoritarism</text>
</g>
<!-- trecut_comunist&#45;&gt;autoritarism -->
<g id="edge5" class="edge">
<title>trecut_comunist-&gt;autoritarism</title>
<path fill="none" stroke="#000000" d="M860.8497,-1134.8533C869.776,-1126.13 880.3463,-1116.7587 891,-1109.4934 959.5939,-1062.7157 1060,-1112.9191 1060,-1029.8934 1060,-1029.8934 1060,-1029.8934 1060,-656.0152 1060,-620.6338 1038.373,-586.4534 1018.1927,-562.2611"/>
<polygon fill="#000000" stroke="#000000" points="1020.6271,-559.7255 1011.4377,-554.4523 1015.333,-564.3051 1020.6271,-559.7255"/>
<text text-anchor="middle" x="1111.8966" y="-852.8621" font-family="Times,serif" font-size="14.00" fill="#000000">Sprijin pentru </text>
<text text-anchor="middle" x="1111.8966" y="-836.0621" font-family="Times,serif" font-size="14.00" fill="#000000">regimuri puternice</text>
</g>
<!-- razboi_ucraina -->
<g id="node3" class="node">
<title>razboi_ucraina</title>
<ellipse fill="#d3d3d3" stroke="#000000" cx="490" cy="-784.4465" rx="66.0644" ry="29.3315"/>
<text text-anchor="middle" x="490" y="-788.6465" font-family="Times,serif" font-size="14.00" fill="#000000">Războiul din </text>
<text text-anchor="middle" x="490" y="-771.8465" font-family="Times,serif" font-size="14.00" fill="#000000">Ucraina</text>
</g>
<!-- social_media -->
<g id="node7" class="node">
<title>social_media</title>
<ellipse fill="#ffffe0" stroke="#000000" cx="335" cy="-527.5839" rx="42.1906" ry="29.3315"/>
<text text-anchor="middle" x="335" y="-531.7839" font-family="Times,serif" font-size="14.00" fill="#000000">Rețele </text>
<text text-anchor="middle" x="335" y="-514.9839" font-family="Times,serif" font-size="14.00" fill="#000000">Sociale</text>
</g>
<!-- razboi_ucraina&#45;&gt;social_media -->
<g id="edge20" class="edge">
<title>razboi_ucraina-&gt;social_media</title>
<path fill="none" stroke="#000000" d="M483.897,-754.9627C478.6847,-737.3026 469.3361,-715.9234 453,-703.4308 413.9195,-673.545 376.6415,-722.0425 343.7776,-685.4308 328.7249,-668.6615 329.3713,-608.4616 331.7702,-567.4458"/>
<polygon fill="#000000" stroke="#000000" points="335.2793,-567.4159 332.4274,-557.2121 328.2937,-566.9672 335.2793,-567.4159"/>
<text text-anchor="middle" x="412.6112" y="-668.6152" font-family="Times,serif" font-size="14.00" fill="#000000">Amplificarea </text>
<text text-anchor="middle" x="412.6112" y="-651.8152" font-family="Times,serif" font-size="14.00" fill="#000000">narativelor/propagandei </text>
<text text-anchor="middle" x="412.6112" y="-635.0152" font-family="Times,serif" font-size="14.00" fill="#000000">de război</text>
</g>
<!-- razboi_ucraina&#45;&gt;autoritarism -->
<g id="edge23" class="edge">
<title>razboi_ucraina-&gt;autoritarism</title>
<path fill="none" stroke="#000000" d="M541.1284,-765.7412C590.3539,-748.1617 667.1235,-721.8677 735,-703.4308 771.8458,-693.4226 789.2789,-709.3982 819,-685.4308 841.3374,-667.4177 823.7523,-645.205 845.5988,-626.5995 868.8775,-606.7743 886.0045,-624.6983 912,-608.5995 930.3911,-597.2101 946.7841,-579.7122 959.2648,-563.8889"/>
<polygon fill="#000000" stroke="#000000" points="962.1458,-565.8829 965.4247,-555.8082 956.5788,-561.6392 962.1458,-565.8829"/>
<text text-anchor="middle" x="890.7006" y="-660.2152" font-family="Times,serif" font-size="14.00" fill="#000000">Narrative </text>
<text text-anchor="middle" x="890.7006" y="-643.4152" font-family="Times,serif" font-size="14.00" fill="#000000">anti-occidentale</text>
</g>
<!-- polarizare -->
<g id="node12" class="node">
<title>polarizare</title>
<ellipse fill="none" stroke="#000000" cx="205" cy="-399.1526" rx="50.3548" ry="18"/>
<text text-anchor="middle" x="205" y="-394.9526" font-family="Times,serif" font-size="14.00" fill="#000000">Polarizare</text>
</g>
<!-- razboi_ucraina&#45;&gt;polarizare -->
<g id="edge22" class="edge">
<title>razboi_ucraina-&gt;polarizare</title>
<path fill="none" stroke="#000000" d="M469.8312,-756.056C453.9837,-734.106 433.6727,-706.8852 428,-703.4308 389.0562,-679.7159 367.6147,-706.1543 327,-685.4308 283.1823,-663.073 270.9765,-651.7348 247.3288,-608.5995 215.01,-549.6476 207.2363,-469.1997 205.4524,-427.2331"/>
<polygon fill="#000000" stroke="#000000" points="208.9487,-427.0631 205.1104,-417.188 201.9528,-427.3013 208.9487,-427.0631"/>
<text text-anchor="middle" x="287.8356" y="-595.9995" font-family="Times,serif" font-size="14.00" fill="#000000">Intensificarea </text>
<text text-anchor="middle" x="287.8356" y="-579.1995" font-family="Times,serif" font-size="14.00" fill="#000000">diviziunilor</text>
</g>
<!-- nationalism -->
<g id="node14" class="node">
<title>nationalism</title>
<ellipse fill="none" stroke="#000000" cx="551" cy="-656.0152" rx="61.3725" ry="18"/>
<text text-anchor="middle" x="551" y="-651.8152" font-family="Times,serif" font-size="14.00" fill="#000000">Naționalism</text>
</g>
<!-- razboi_ucraina&#45;&gt;nationalism -->
<g id="edge21" class="edge">
<title>razboi_ucraina-&gt;nationalism</title>
<path fill="none" stroke="#000000" d="M501.7134,-755.2595C508.1614,-739.7045 516.5176,-720.3414 524.7966,-703.4308 528.1516,-696.578 532.0116,-689.3068 535.7197,-682.5706"/>
<polygon fill="#000000" stroke="#000000" points="538.7948,-684.2424 540.6202,-673.806 532.685,-680.8262 538.7948,-684.2424"/>
<text text-anchor="middle" x="563.1017" y="-724.4308" font-family="Times,serif" font-size="14.00" fill="#000000">Naționalism </text>
<text text-anchor="middle" x="563.1017" y="-707.6308" font-family="Times,serif" font-size="14.00" fill="#000000">exacerbat</text>
</g>
<!-- coruptie&#45;&gt;saracie -->
<g id="edge6" class="edge">
<title>coruptie-&gt;saracie</title>
<path fill="none" stroke="#000000" d="M600,-1011.8661C600,-996.1434 600,-972.7708 600,-952.6845"/>
<polygon fill="#000000" stroke="#000000" points="603.5001,-952.538 600,-942.5381 596.5001,-952.5381 603.5001,-952.538"/>
<text text-anchor="middle" x="634.7963" y="-981.2934" font-family="Times,serif" font-size="14.00" fill="#000000">Instabilitate </text>
<text text-anchor="middle" x="634.7963" y="-964.4934" font-family="Times,serif" font-size="14.00" fill="#000000">economică</text>
</g>
<!-- coruptie&#45;&gt;educatie_precara -->
<g id="edge7" class="edge">
<title>coruptie-&gt;educatie_precara</title>
<path fill="none" stroke="#000000" d="M635.2421,-1017.5848C648.4141,-1011.8067 662.864,-1003.9444 674,-993.8934 722.2167,-950.3744 735.036,-871.845 738.223,-824.293"/>
<polygon fill="#000000" stroke="#000000" points="741.7311,-824.243 738.792,-814.064 734.7419,-823.8542 741.7311,-824.243"/>
<text text-anchor="middle" x="767.8994" y="-908.6777" font-family="Times,serif" font-size="14.00" fill="#000000">Subfinanțare</text>
</g>
<!-- coruptie&#45;&gt;social_media -->
<g id="edge8" class="edge">
<title>coruptie-&gt;social_media</title>
<path fill="none" stroke="#000000" d="M554.7513,-1023.8187C460.2005,-1008.411 242.9668,-958.206 152.3526,-813.8621 138.4506,-791.7169 147.1259,-780.6503 152.3526,-755.0308 169.7362,-669.8223 168.067,-637.0467 229,-574.9995 244.4774,-559.2391 266.1242,-548.2837 285.8239,-540.9074"/>
<polygon fill="#000000" stroke="#000000" points="287.0337,-544.1921 295.3027,-537.5684 284.7079,-537.5898 287.0337,-544.1921"/>
<text text-anchor="middle" x="227.8237" y="-788.6465" font-family="Times,serif" font-size="14.00" fill="#000000">Exploatarea neîncrederii/</text>
<text text-anchor="middle" x="227.8237" y="-771.8465" font-family="Times,serif" font-size="14.00" fill="#000000">propagarea dezinformării</text>
</g>
<!-- coruptie&#45;&gt;polarizare -->
<g id="edge9" class="edge">
<title>coruptie-&gt;polarizare</title>
<path fill="none" stroke="#000000" d="M553.4183,-1025.743C412.4456,-1012.5636 0,-969.1925 0,-912.8777 0,-912.8777 0,-912.8777 0,-527.5839 0,-456.7698 88.9319,-423.5232 149.6465,-409.0769"/>
<polygon fill="#000000" stroke="#000000" points="150.5287,-412.4657 159.5039,-406.8358 148.9767,-405.6399 150.5287,-412.4657"/>
<text text-anchor="middle" x="44.5186" y="-724.4308" font-family="Times,serif" font-size="14.00" fill="#000000">Favorizarea </text>
<text text-anchor="middle" x="44.5186" y="-707.6308" font-family="Times,serif" font-size="14.00" fill="#000000">clivajului social</text>
</g>
<!-- saracie&#45;&gt;extremism -->
<g id="edge10" class="edge">
<title>saracie-&gt;extremism</title>
<path fill="none" stroke="#000000" d="M602.6912,-883.3153C611.2716,-789.6964 637.7906,-505.4677 644.1374,-498.1682 665.7414,-473.3214 691.692,-502.3767 716,-480.1682 755.5104,-444.0705 738.8394,-308.388 739,-300.137 739.5087,-273.9947 741.8975,-267.2919 739,-241.3057 736.1042,-215.335 730.7025,-187.4705 724.904,-162.2198"/>
<polygon fill="#000000" stroke="#000000" points="728.2712,-161.2485 722.5788,-152.3128 721.4564,-162.8481 728.2712,-161.2485"/>
<text text-anchor="middle" x="685.4313" y="-531.7839" font-family="Times,serif" font-size="14.00" fill="#000000">Disperare, </text>
<text text-anchor="middle" x="685.4313" y="-514.9839" font-family="Times,serif" font-size="14.00" fill="#000000">vulnerabilitate</text>
</g>
<!-- saracie&#45;&gt;educatie_precara -->
<g id="edge11" class="edge">
<title>saracie-&gt;educatie_precara</title>
<path fill="none" stroke="#000000" d="M633.3642,-885.1432C640.3843,-878.8818 647.5975,-872.1137 654,-865.4621 667.3445,-851.5984 667.736,-845.5061 681.305,-831.8621 687.0905,-826.0447 693.5411,-820.206 699.9745,-814.7121"/>
<polygon fill="#000000" stroke="#000000" points="702.6258,-817.0584 708.0629,-807.965 698.1418,-811.683 702.6258,-817.0584"/>
<text text-anchor="middle" x="700.8475" y="-852.8621" font-family="Times,serif" font-size="14.00" fill="#000000">Acces </text>
<text text-anchor="middle" x="700.8475" y="-836.0621" font-family="Times,serif" font-size="14.00" fill="#000000">limitat</text>
</g>
<!-- saracie&#45;&gt;social_media -->
<g id="edge12" class="edge">
<title>saracie-&gt;social_media</title>
<path fill="none" stroke="#000000" d="M551.7371,-887.3364C461.2338,-839.3868 274.8957,-740.3839 272.8968,-737.0308 255.4825,-707.8188 292.9444,-616.7481 316.9429,-564.8234"/>
<polygon fill="#000000" stroke="#000000" points="320.1869,-566.1485 321.2509,-555.6072 313.8455,-563.1842 320.1869,-566.1485"/>
<text text-anchor="middle" x="361.0516" y="-716.0308" font-family="Times,serif" font-size="14.00" fill="#000000">Căutarea evadării/comunității</text>
</g>
<!-- saracie&#45;&gt;polarizare -->
<g id="edge13" class="edge">
<title>saracie-&gt;polarizare</title>
<path fill="none" stroke="#000000" d="M508.9475,-902.9285C391.8324,-888.5209 196.8335,-858.5809 141,-813.8621 98.804,-780.066 127.3401,-742.5255 90,-703.4308 78.0007,-690.8677 64.3253,-700.2766 55.3022,-685.4308 41.7219,-663.0869 47.7991,-651.6471 55.3022,-626.5995 80.0609,-543.9476 145.6087,-463.5368 181.1986,-424.1844"/>
<polygon fill="#000000" stroke="#000000" points="184.1352,-426.1605 188.3129,-416.4242 178.9753,-421.4302 184.1352,-426.1605"/>
<text text-anchor="middle" x="109.8489" y="-660.2152" font-family="Times,serif" font-size="14.00" fill="#000000">Adâncirea </text>
<text text-anchor="middle" x="109.8489" y="-643.4152" font-family="Times,serif" font-size="14.00" fill="#000000">diviziunilor sociale</text>
</g>
<!-- educatie_precara&#45;&gt;autoritarism -->
<g id="edge15" class="edge">
<title>educatie_precara-&gt;autoritarism</title>
<path fill="none" stroke="#000000" d="M787.2937,-773.6715C833.5417,-760.75 901.6466,-734.418 939,-685.4308 965.3064,-650.9312 976.2391,-601.6368 980.7797,-567.3479"/>
<polygon fill="#000000" stroke="#000000" points="984.2785,-567.5668 981.9937,-557.2212 977.3282,-566.7336 984.2785,-567.5668"/>
<text text-anchor="middle" x="997.3205" y="-660.2152" font-family="Times,serif" font-size="14.00" fill="#000000">Nevoia de </text>
<text text-anchor="middle" x="997.3205" y="-643.4152" font-family="Times,serif" font-size="14.00" fill="#000000">ordine</text>
</g>
<!-- manipulare -->
<g id="node10" class="node">
<title>manipulare</title>
<ellipse fill="none" stroke="#000000" cx="739" cy="-656.0152" rx="70.8783" ry="29.3315"/>
<text text-anchor="middle" x="739" y="-660.2152" font-family="Times,serif" font-size="14.00" fill="#000000">Manipulare și </text>
<text text-anchor="middle" x="739" y="-643.4152" font-family="Times,serif" font-size="14.00" fill="#000000">Vulnerabilitate</text>
</g>
<!-- educatie_precara&#45;&gt;manipulare -->
<g id="edge14" class="edge">
<title>educatie_precara-&gt;manipulare</title>
<path fill="none" stroke="#000000" d="M739,-754.9817C739,-737.4857 739,-715.0646 739,-695.9886"/>
<polygon fill="#000000" stroke="#000000" points="742.5001,-695.7875 739,-685.7875 735.5001,-695.7876 742.5001,-695.7875"/>
<text text-anchor="middle" x="794.5842" y="-716.0308" font-family="Times,serif" font-size="14.00" fill="#000000">Crește manipularea</text>
</g>
<!-- propaganda -->
<g id="node9" class="node">
<title>propaganda</title>
<ellipse fill="none" stroke="#000000" cx="652" cy="-399.1526" rx="72.7832" ry="29.3315"/>
<text text-anchor="middle" x="652" y="-403.3526" font-family="Times,serif" font-size="14.00" fill="#000000">Propagandă și </text>
<text text-anchor="middle" x="652" y="-386.5526" font-family="Times,serif" font-size="14.00" fill="#000000">Dezinformare</text>
</g>
<!-- social_media&#45;&gt;propaganda -->
<g id="edge16" class="edge">
<title>social_media-&gt;propaganda</title>
<path fill="none" stroke="#000000" d="M377.0103,-524.8751C444.5971,-519.7826 573.5878,-506.808 610,-480.1682 617.8396,-474.4327 627.8055,-455.6032 636.0619,-437.5399"/>
<polygon fill="#000000" stroke="#000000" points="639.3337,-438.7963 640.2033,-428.2372 632.9388,-435.9493 639.3337,-438.7963"/>
<text text-anchor="middle" x="671.614" y="-467.5682" font-family="Times,serif" font-size="14.00" fill="#000000">Dezinformare </text>
<text text-anchor="middle" x="671.614" y="-450.7682" font-family="Times,serif" font-size="14.00" fill="#000000">coordonată</text>
</g>
<!-- social_media&#45;&gt;polarizare -->
<g id="edge18" class="edge">
<title>social_media-&gt;polarizare</title>
<path fill="none" stroke="#000000" d="M310.548,-503.4269C287.4198,-480.5779 252.888,-446.4628 229.684,-423.5387"/>
<polygon fill="#000000" stroke="#000000" points="231.8556,-420.7641 222.2819,-416.2259 226.936,-425.7439 231.8556,-420.7641"/>
<text text-anchor="middle" x="327.0137" y="-467.5682" font-family="Times,serif" font-size="14.00" fill="#000000">Crearea de </text>
<text text-anchor="middle" x="327.0137" y="-450.7682" font-family="Times,serif" font-size="14.00" fill="#000000">grupuri izolate</text>
</g>
<!-- homofobie -->
<g id="node13" class="node">
<title>homofobie</title>
<ellipse fill="none" stroke="#000000" cx="435" cy="-270.7213" rx="55.0381" ry="18"/>
<text text-anchor="middle" x="435" y="-266.5213" font-family="Times,serif" font-size="14.00" fill="#000000">Homofobie</text>
</g>
<!-- social_media&#45;&gt;homofobie -->
<g id="edge19" class="edge">
<title>social_media-&gt;homofobie</title>
<path fill="none" stroke="#000000" d="M357.591,-502.1859C362.8559,-495.3708 368.0659,-487.773 372,-480.1682 403.4581,-419.3587 421.8551,-340.3091 429.9842,-298.8781"/>
<polygon fill="#000000" stroke="#000000" points="433.4422,-299.4289 431.8755,-288.9506 426.5658,-298.1189 433.4422,-299.4289"/>
<text text-anchor="middle" x="463.7906" y="-403.3526" font-family="Times,serif" font-size="14.00" fill="#000000">Propagarea </text>
<text text-anchor="middle" x="463.7906" y="-386.5526" font-family="Times,serif" font-size="14.00" fill="#000000">ura anti-LGBTQ+</text>
</g>
<!-- autoritarism&#45;&gt;extremism -->
<g id="edge29" class="edge">
<title>autoritarism-&gt;extremism</title>
<path fill="none" stroke="#000000" d="M1002.4208,-499.3878C1020.6962,-467.8356 1044.2094,-415.1773 1031,-369.737 1002.0723,-270.2259 983.8197,-241.3407 906,-172.9057 871.3408,-142.4262 825.2733,-119.7608 785.6862,-104.1835"/>
<polygon fill="#000000" stroke="#000000" points="786.8894,-100.8964 776.2995,-100.5734 784.3766,-107.4298 786.8894,-100.8964"/>
<text text-anchor="middle" x="1063.6834" y="-339.137" font-family="Times,serif" font-size="14.00" fill="#000000">Consolidarea </text>
<text text-anchor="middle" x="1063.6834" y="-322.337" font-family="Times,serif" font-size="14.00" fill="#000000">poporului</text>
</g>
<!-- propaganda&#45;&gt;extremism -->
<g id="edge17" class="edge">
<title>propaganda-&gt;extremism</title>
<path fill="none" stroke="#000000" d="M653.3553,-369.6305C655.09,-337.8137 658.7227,-285.7555 665.5434,-241.3057 669.4845,-215.6219 675.1029,-187.9521 680.752,-162.7955"/>
<polygon fill="#000000" stroke="#000000" points="684.1929,-163.4482 682.9994,-152.9208 677.3674,-161.8947 684.1929,-163.4482"/>
<text text-anchor="middle" x="702.7283" y="-274.9213" font-family="Times,serif" font-size="14.00" fill="#000000">Radicalizare </text>
<text text-anchor="middle" x="702.7283" y="-258.1213" font-family="Times,serif" font-size="14.00" fill="#000000">ideologică</text>
</g>
<!-- manipulare&#45;&gt;extremism -->
<g id="edge33" class="edge">
<title>manipulare-&gt;extremism</title>
<path fill="none" stroke="#000000" d="M749.3286,-626.615C757.0248,-608.9873 769.2888,-587.6128 787,-574.9995 819.5176,-551.8416 847.0861,-585.5388 875,-556.9995 904.5734,-526.7635 892,-505.6625 892,-463.3682 892,-463.3682 892,-463.3682 892,-270.7213 892,-203.3076 832.4875,-150.8156 780.0765,-117.6587"/>
<polygon fill="#000000" stroke="#000000" points="781.7484,-114.5776 771.4009,-112.3017 778.0706,-120.5336 781.7484,-114.5776"/>
<text text-anchor="middle" x="959.2525" y="-403.3526" font-family="Times,serif" font-size="14.00" fill="#000000">Căutarea răspunsurilor </text>
<text text-anchor="middle" x="959.2525" y="-386.5526" font-family="Times,serif" font-size="14.00" fill="#000000">radicale</text>
</g>
<!-- manipulare&#45;&gt;social_media -->
<g id="edge31" class="edge">
<title>manipulare-&gt;social_media</title>
<path fill="none" stroke="#000000" d="M679.8798,-639.8045C661.153,-635.0669 640.3022,-630.2002 621,-626.5995 557.6902,-614.7895 538.3267,-628.9301 477.218,-608.5995 439.507,-596.0533 400.5517,-573.0338 372.968,-554.73"/>
<polygon fill="#000000" stroke="#000000" points="374.676,-551.6604 364.4279,-548.9722 370.7628,-557.4645 374.676,-551.6604"/>
<text text-anchor="middle" x="554.391" y="-595.9995" font-family="Times,serif" font-size="14.00" fill="#000000">Amplifică vulnerabilitatea </text>
<text text-anchor="middle" x="554.391" y="-579.1995" font-family="Times,serif" font-size="14.00" fill="#000000">la manipulare online</text>
</g>
<!-- manipulare&#45;&gt;autoritarism -->
<g id="edge34" class="edge">
<title>manipulare-&gt;autoritarism</title>
<path fill="none" stroke="#000000" d="M766.4501,-628.6323C772.4425,-622.2383 778.6017,-615.3265 784,-608.5995 795.2726,-594.5525 791.5743,-584.8457 806.6556,-574.9995 844.2288,-550.4689 862.753,-568.9656 906,-556.9995 912.5602,-555.1844 919.3425,-553.0434 926.0441,-550.7575"/>
<polygon fill="#000000" stroke="#000000" points="927.5039,-553.9539 935.7694,-547.3258 925.1746,-547.3528 927.5039,-553.9539"/>
<text text-anchor="middle" x="859.6722" y="-595.9995" font-family="Times,serif" font-size="14.00" fill="#000000">Sprijin pentru </text>
<text text-anchor="middle" x="859.6722" y="-579.1995" font-family="Times,serif" font-size="14.00" fill="#000000">regimuri autoritare</text>
</g>
<!-- manipulare&#45;&gt;propaganda -->
<g id="edge32" class="edge">
<title>manipulare-&gt;propaganda</title>
<path fill="none" stroke="#000000" d="M738.269,-626.263C736.5723,-575.9361 731.1004,-476.549 714,-446.5682 710.6169,-440.6369 706.1634,-435.2034 701.192,-430.3017"/>
<polygon fill="#000000" stroke="#000000" points="703.3865,-427.5686 693.6022,-423.5044 698.7165,-432.7831 703.3865,-427.5686"/>
<text text-anchor="middle" x="802.837" y="-531.7839" font-family="Times,serif" font-size="14.00" fill="#000000">Crește susceptibilitatea </text>
<text text-anchor="middle" x="802.837" y="-514.9839" font-family="Times,serif" font-size="14.00" fill="#000000">la dezinformare</text>
</g>
<!-- mentalitate_us_them -->
<g id="node11" class="node">
<title>mentalitate_us_them</title>
<ellipse fill="none" stroke="#000000" cx="235" cy="-270.7213" rx="59.0208" ry="29.3315"/>
<text text-anchor="middle" x="235" y="-274.9213" font-family="Times,serif" font-size="14.00" fill="#000000">Mentalitate </text>
<text text-anchor="middle" x="235" y="-258.1213" font-family="Times,serif" font-size="14.00" fill="#000000">"Noi vs. Ei"</text>
</g>
<!-- mentalitate_us_them&#45;&gt;extremism -->
<g id="edge26" class="edge">
<title>mentalitate_us_them-&gt;extremism</title>
<path fill="none" stroke="#000000" d="M263.5255,-244.6661C288.8917,-222.7356 327.8529,-191.9802 366.5126,-172.9057 446.6112,-133.3854 545.7784,-107.7187 615.4518,-93.0609"/>
<polygon fill="#000000" stroke="#000000" points="616.4292,-96.4328 625.5118,-90.9778 615.0098,-89.5782 616.4292,-96.4328"/>
<text text-anchor="middle" x="417.7437" y="-210.7057" font-family="Times,serif" font-size="14.00" fill="#000000">Mobilizare </text>
<text text-anchor="middle" x="417.7437" y="-193.9057" font-family="Times,serif" font-size="14.00" fill="#000000">împotriva </text>
<text text-anchor="middle" x="417.7437" y="-177.1057" font-family="Times,serif" font-size="14.00" fill="#000000">inamicului comun</text>
</g>
<!-- polarizare&#45;&gt;mentalitate_us_them -->
<g id="edge24" class="edge">
<title>polarizare-&gt;mentalitate_us_them</title>
<path fill="none" stroke="#000000" d="M198.7417,-381.2421C193.8864,-364.4647 189.1129,-338.9287 196.4922,-318.137 198.0301,-313.8037 200.1518,-309.5781 202.6153,-305.548"/>
<polygon fill="#000000" stroke="#000000" points="205.6648,-307.291 208.4605,-297.0717 199.9021,-303.3171 205.6648,-307.291"/>
<text text-anchor="middle" x="243.2539" y="-330.737" font-family="Times,serif" font-size="14.00" fill="#000000">Divizare socială</text>
</g>
<!-- polarizare&#45;&gt;homofobie -->
<g id="edge25" class="edge">
<title>polarizare-&gt;homofobie</title>
<path fill="none" stroke="#000000" d="M237.6294,-385.1888C254.2294,-377.0375 274.0095,-365.6182 289,-351.737 302.1925,-339.5207 297.4756,-329.3499 311.5308,-318.137 331.3989,-302.2867 357.1683,-291.2787 380.0215,-283.8888"/>
<polygon fill="#000000" stroke="#000000" points="381.0821,-287.2245 389.6115,-280.9396 379.0245,-280.5337 381.0821,-287.2245"/>
<text text-anchor="middle" x="352.2346" y="-339.137" font-family="Times,serif" font-size="14.00" fill="#000000">Stigmatizarea </text>
<text text-anchor="middle" x="352.2346" y="-322.337" font-family="Times,serif" font-size="14.00" fill="#000000">grupurilor</text>
</g>
<!-- homofobie&#45;&gt;extremism -->
<g id="edge30" class="edge">
<title>homofobie-&gt;extremism</title>
<path fill="none" stroke="#000000" d="M447.6078,-253.1048C463.3001,-232.0818 491.7661,-196.7814 522.1892,-172.9057 552.3048,-149.2712 589.1261,-128.5485 621.5873,-112.5047"/>
<polygon fill="#000000" stroke="#000000" points="623.1612,-115.6312 630.6182,-108.105 620.0954,-109.3383 623.1612,-115.6312"/>
<text text-anchor="middle" x="580.9054" y="-202.3057" font-family="Times,serif" font-size="14.00" fill="#000000">Excluderea și </text>
<text text-anchor="middle" x="580.9054" y="-185.5057" font-family="Times,serif" font-size="14.00" fill="#000000">radicalizarea socială</text>
</g>
<!-- nationalism&#45;&gt;autoritarism -->
<g id="edge27" class="edge">
<title>nationalism-&gt;autoritarism</title>
<path fill="none" stroke="#000000" d="M578.1418,-639.8404C611.0769,-621.0187 668.8684,-590.5413 722.467,-574.9995 785.0628,-556.8489 803.9464,-569.0331 868,-556.9995 884.6559,-553.8704 902.4748,-549.7489 919.0244,-545.5851"/>
<polygon fill="#000000" stroke="#000000" points="920.3231,-548.8656 929.1431,-542.9955 918.5876,-542.0841 920.3231,-548.8656"/>
<text text-anchor="middle" x="751.7665" y="-595.9995" font-family="Times,serif" font-size="14.00" fill="#000000">Tendințe </text>
<text text-anchor="middle" x="751.7665" y="-579.1995" font-family="Times,serif" font-size="14.00" fill="#000000">autoritare</text>
</g>
<!-- nationalism&#45;&gt;homofobie -->
<g id="edge28" class="edge">
<title>nationalism-&gt;homofobie</title>
<path fill="none" stroke="#000000" d="M549.0963,-637.6857C542.6173,-575.4796 521.6752,-375.9357 519,-369.737 506.3039,-340.319 481.8124,-313.0451 462.5369,-294.6028"/>
<polygon fill="#000000" stroke="#000000" points="464.8775,-291.9998 455.1763,-287.7409 460.1042,-297.12 464.8775,-291.9998"/>
<text text-anchor="middle" x="569.3454" y="-467.5682" font-family="Times,serif" font-size="14.00" fill="#000000">Respingerea </text>
<text text-anchor="middle" x="569.3454" y="-450.7682" font-family="Times,serif" font-size="14.00" fill="#000000">minoritatilor</text>
</g>
<!-- cheie -->
<g id="node15" class="node">
<title>cheie</title>
<polygon fill="#d3d3d3" stroke="transparent" points="911,-1173.4934 911,-1199.4934 961,-1199.4934 961,-1173.4934 911,-1173.4934"/>
<polygon fill="none" stroke="#000000" points="911,-1173.4934 911,-1199.4934 961,-1199.4934 961,-1173.4934 911,-1173.4934"/>
<text text-anchor="start" x="926.6711" y="-1181.8934" font-family="Times,serif" font-size="14.00" fill="#000000">Gri</text>
<polygon fill="none" stroke="#000000" points="961,-1173.4934 961,-1199.4934 1165,-1199.4934 1165,-1173.4934 961,-1173.4934"/>
<text text-anchor="start" x="1004.4898" y="-1181.8934" font-family="Times,serif" font-size="14.00" fill="#000000">Factor nemodificabil</text>
<polygon fill="#f08080" stroke="transparent" points="911,-1147.4934 911,-1173.4934 961,-1173.4934 961,-1147.4934 911,-1147.4934"/>
<polygon fill="none" stroke="#000000" points="911,-1147.4934 911,-1173.4934 961,-1173.4934 961,-1147.4934 911,-1147.4934"/>
<text text-anchor="start" x="920.4488" y="-1155.8934" font-family="Times,serif" font-size="14.00" fill="#000000">Coral</text>
<polygon fill="none" stroke="#000000" points="961,-1147.4934 961,-1173.4934 1165,-1173.4934 1165,-1147.4934 961,-1147.4934"/>
<text text-anchor="start" x="965.623" y="-1155.8934" font-family="Times,serif" font-size="14.00" fill="#000000">Influență mare asupra contextului</text>
<polygon fill="#ffffe0" stroke="transparent" points="911,-1121.4934 911,-1147.4934 961,-1147.4934 961,-1121.4934 911,-1121.4934"/>
<polygon fill="none" stroke="#000000" points="911,-1121.4934 911,-1147.4934 961,-1147.4934 961,-1121.4934 911,-1121.4934"/>
<text text-anchor="start" x="915.7868" y="-1129.8934" font-family="Times,serif" font-size="14.00" fill="#000000">Galben</text>
<polygon fill="none" stroke="#000000" points="961,-1121.4934 961,-1147.4934 1165,-1147.4934 1165,-1121.4934 961,-1121.4934"/>
<text text-anchor="start" x="983.1034" y="-1129.8934" font-family="Times,serif" font-size="14.00" fill="#000000">Factorii cei mai influentabili</text>
</g>
</g>
</svg>